<svg width="67" height="67" viewBox="0 0 67 67" fill="none" xmlns="http://www.w3.org/2000/svg">
<circle cx="33.5" cy="33.5" r="32.5" fill="#DEFE47" stroke="white"/>
<mask id="mask0_50_899" style="mask-type:luminance" maskUnits="userSpaceOnUse" x="14" y="14" width="39" height="39">
<path d="M52.4938 14H14.5068V53H52.4938V14Z" fill="white"/>
</mask>
<g mask="url(#mask0_50_899)">
<g filter="url(#filter0_d_50_899)">
<path d="M37.1987 34.0632L36.7871 33.3692C36.5207 33.5358 36.3745 33.8473 36.4136 34.165C36.4525 34.4825 36.6695 34.747 36.9679 34.8405L37.1987 34.0632ZM29.8021 34.0632L30.0329 34.8405C30.3312 34.747 30.5482 34.4825 30.5873 34.165C30.6263 33.8473 30.48 33.5358 30.2136 33.3692L29.8021 34.0632ZM39.8316 27.8125C39.8316 30.1655 38.6143 32.2273 36.7871 33.3692L37.6102 34.7573C39.8894 33.3328 41.4144 30.7559 41.4144 27.8125H39.8316ZM33.5005 21.3125C36.997 21.3125 39.8316 24.2227 39.8316 27.8125H41.4144C41.4144 23.3252 37.8712 19.6875 33.5005 19.6875V21.3125ZM27.1692 27.8125C27.1692 24.2227 30.0038 21.3125 33.5005 21.3125V19.6875C29.1296 19.6875 25.5864 23.3252 25.5864 27.8125H27.1692ZM30.2136 33.3692C28.3865 32.2273 27.1692 30.1655 27.1692 27.8125H25.5864C25.5864 30.7559 27.1114 33.3328 29.3906 34.7573L30.2136 33.3692ZM29.5713 33.286C24.5748 34.8502 20.8121 39.3182 20.1503 44.7778L21.721 44.9785C22.3044 40.1654 25.6242 36.2206 30.0329 34.8405L29.5713 33.286ZM20.1503 44.7778C19.9754 46.2208 21.1397 47.3125 22.4208 47.3125V45.6875C21.9537 45.6875 21.68 45.3169 21.721 44.9785L20.1503 44.7778ZM22.4208 47.3125H44.58V45.6875H22.4208V47.3125ZM44.58 47.3125C45.8611 47.3125 47.0254 46.2208 46.8505 44.7778L45.2798 44.9785C45.3208 45.3169 45.0471 45.6875 44.58 45.6875V47.3125ZM46.8505 44.7778C46.1888 39.3182 42.426 34.8502 37.4294 33.286L36.9679 34.8405C41.3766 36.2206 44.6963 40.1654 45.2798 44.9785L46.8505 44.7778Z" fill="black"/>
</g>
</g>
<defs>
<filter id="filter0_d_50_899" x="17.6328" y="19.6875" width="31.7354" height="32.625" filterUnits="userSpaceOnUse" color-interpolation-filters="sRGB">
<feFlood flood-opacity="0" result="BackgroundImageFix"/>
<feColorMatrix in="SourceAlpha" type="matrix" values="0 0 0 0 0 0 0 0 0 0 0 0 0 0 0 0 0 0 127 0" result="hardAlpha"/>
<feOffset dy="2.5"/>
<feGaussianBlur stdDeviation="1.25"/>
<feColorMatrix type="matrix" values="0 0 0 0 0 0 0 0 0 0 0 0 0 0 0 0 0 0 0.1 0"/>
<feBlend mode="normal" in2="BackgroundImageFix" result="effect1_dropShadow_50_899"/>
<feBlend mode="normal" in="SourceGraphic" in2="effect1_dropShadow_50_899" result="shape"/>
</filter>
</defs>
</svg>
