<svg width="182" height="19" viewBox="0 0 182 19" fill="none" xmlns="http://www.w3.org/2000/svg">
<path d="M9.14932 4.75L8.87432 5.025L7.17432 11.375L11.4743 7.075H19.2743C20.1577 7.075 20.8243 7.38333 21.2743 8C21.7243 8.61667 21.8327 9.36667 21.5993 10.25L20.9743 12.575C20.7743 13.3417 20.3493 14.0167 19.6993 14.6L17.4993 16.6C16.4993 17.5167 15.3993 17.975 14.1993 17.975H0.449316L1.59932 13.725H17.1493L17.8993 10.9H8.74932L6.84932 12.525H1.92432L2.22432 11.35C2.44098 10.55 2.87432 9.825 3.52432 9.175L10.6993 2C11.6993 0.999999 12.8243 0.499999 14.0743 0.499999H24.1993L23.0743 4.75H9.14932ZM38.1862 0.499999H43.1362L42.3362 3.525L33.9112 11.85L32.2862 17.975H27.3362L28.3362 14.275L31.4612 11.85H28.6362L24.7112 3.525L25.5112 0.499999H30.4612L28.5612 7.6H36.2862L38.1862 0.499999ZM71.8364 0.524998C72.7031 0.524998 73.3614 0.833332 73.8114 1.45C74.2614 2.06667 74.3698 2.80833 74.1364 3.675L70.2864 18.025H65.3364L68.8864 4.8H63.5864L60.4614 7.9L60.4364 7.875L57.7114 18.025H52.7614L56.3114 4.8H51.0114L47.8864 7.9L47.8614 7.875L45.1364 18.025H40.1864L44.8864 0.524998L49.8364 0.499999L48.2364 6.425L53.0864 1.625C53.8198 0.891665 54.6364 0.524998 55.5364 0.524998H59.2364C60.1198 0.524998 60.7864 0.833332 61.2364 1.45C61.6864 2.06667 61.7948 2.80833 61.5614 3.675L60.8114 6.425L65.6614 1.625C66.3948 0.891665 67.2114 0.524998 68.1114 0.524998H71.8364ZM95.1595 2.35C96.0761 3.6 96.2928 5.11667 95.8095 6.9C95.3261 8.65 94.2761 10.1417 92.6595 11.375C91.0428 12.5917 89.3511 13.2 87.5845 13.2H84.1095L81.8595 10.475L80.4345 8.75L77.9595 17.975H73.0095L75.9345 7.075H80.3595L82.2845 9.4H87.8845C88.5178 9.4 89.1178 9.175 89.6845 8.725C90.2678 8.25833 90.6428 7.70833 90.8095 7.075C90.9761 6.44167 90.8928 5.9 90.5595 5.45C90.2428 4.98333 89.7595 4.75 89.1095 4.75H76.5595L77.7095 0.499999H91.1595C92.9095 0.499999 94.2428 1.11667 95.1595 2.35ZM113.576 0.499999H118.526L113.826 17.975L108.876 18.025L110.876 10.575H103.151L101.176 12.55L99.7009 17.975L94.7509 18.025L99.4509 0.499999H104.401L101.576 11.025L105.876 6.75H111.901L113.576 0.499999ZM129.536 0.499999H142.561L140.961 6.45C140.628 7.68333 139.97 8.79167 138.986 9.775L132.061 16.625C131.161 17.525 130.145 17.975 129.011 17.975H115.986L117.586 12.025C117.92 10.7917 118.586 9.68333 119.586 8.7L126.486 1.85C127.403 0.949999 128.42 0.499999 129.536 0.499999ZM134.136 13.45L136.461 4.75H124.686L124.411 5.025L122.086 13.725H133.886L134.136 13.45ZM159.589 0.524998C160.455 0.524998 161.114 0.833332 161.564 1.45C162.03 2.06667 162.147 2.80833 161.914 3.675L158.064 18.025H153.114L156.664 4.8H150.839L147.714 7.9L147.689 7.875L144.964 18.025H140.014L144.714 0.524998L149.664 0.499999L148.064 6.425L152.914 1.625C153.647 0.891665 154.464 0.524998 155.364 0.524998H159.589ZM177.05 0.499999H182L181.2 3.525L172.775 11.85L171.15 17.975H166.2L167.2 14.275L170.325 11.85H167.5L163.575 3.525L164.375 0.499999H169.325L167.425 7.6H175.15L177.05 0.499999Z" fill="#DEFE47"/>
</svg>
